<svg width="12" height="10" fill="none" xmlns="http://www.w3.org/2000/svg"><path fill-rule="evenodd" clip-rule="evenodd" d="M5.64 2.754l.026.415-.42-.05c-1.528-.196-2.862-.857-3.995-1.967L.697.602l-.143.406c-.302.907-.11 1.864.52 2.508.336.356.26.407-.319.195-.201-.068-.377-.118-.394-.093-.059.06.143.83.302 1.136.218.423.663.839 1.15 1.084l.411.195-.486.009c-.47 0-.487.008-.437.186.168.55.831 1.136 1.57 1.39l.52.178-.453.27c-.672.39-1.46.611-2.25.628-.377.008-.688.042-.688.068 0 .085 1.024.56 1.62.745 1.788.551 3.911.314 5.506-.627 1.133-.669 2.267-2 2.795-3.288.286-.686.571-1.94.571-2.542 0-.39.025-.44.495-.906.277-.272.538-.568.588-.653.084-.16.075-.16-.353-.017-.713.254-.814.22-.461-.16.26-.272.57-.764.57-.908 0-.025-.125.017-.268.094a4.685 4.685 0 01-.739.288l-.453.144-.411-.28C9.233.5 8.914.33 8.746.28 8.318.161 7.663.178 7.277.313c-1.049.382-1.712 1.365-1.636 2.44z" fill="#515151"/></svg>