<svg width="14" height="14" fill="none" xmlns="http://www.w3.org/2000/svg"><path fill-rule="evenodd" clip-rule="evenodd" d="M13.4 6.991a6.405 6.405 0 01-.504 2.488 6.443 6.443 0 01-2.318 2.811c-.342.23-.708.429-1.087.59a6.43 6.43 0 01-4.983 0 6.465 6.465 0 01-1.087-.59 6.445 6.445 0 01-2.318-2.81A6.37 6.37 0 01.73 5.705a6.355 6.355 0 01.964-2.288 6.453 6.453 0 011.728-1.725A6.337 6.337 0 015.71.73a6.45 6.45 0 013.78.372 6.423 6.423 0 013.778 4.603c.087.42.131.853.131 1.286zM4.668 2.055a5.466 5.466 0 00-3.017 3.81c.144.002 2.422.03 5.046-.665a32.86 32.86 0 00-2.03-3.145zM7.15 6.04c-2.814.841-5.515.78-5.612.777-.001.059-.004.116-.004.174 0 1.402.53 2.68 1.4 3.647-.001-.003 1.494-2.653 4.444-3.605.071-.024.144-.045.215-.065-.137-.31-.286-.621-.443-.928zm3.46-3.145A5.443 5.443 0 007 1.534c-.444 0-.875.053-1.288.153.082.11 1.108 1.47 2.043 3.183 2.062-.772 2.84-1.955 2.854-1.975zM7.965 7.872l-.036.012c-3.225 1.122-4.278 3.385-4.29 3.41a5.46 5.46 0 005.494.722 22.696 22.696 0 00-1.168-4.144zm2.088 3.645a5.46 5.46 0 002.342-3.66 7.94 7.94 0 00-3.406-.238 23.598 23.598 0 011.064 3.898zM8.176 5.684a17.209 17.209 0 01.481 1.074c1.878-.236 3.727.16 3.806.177a5.426 5.426 0 00-1.242-3.41c-.01.014-.887 1.279-3.045 2.159z" fill="#515151"/></svg>