<svg width="25" height="24" viewBox="0 0 25 24" fill="none" xmlns="http://www.w3.org/2000/svg">
<path opacity="0.4" d="M21.82 5.8L21.34 9.22C20.38 9.14 19.6 9.3 19 9.7C18.4 10.08 17.98 10.64 17.74 11.38C17.52 12.1 17.48 12.94 17.62 13.9H21.82V22.06H13.66V13.9C13.66 11.02 14.33 8.84 15.67 7.36C17.01 5.86 19.06 5.34 21.82 5.8ZM10.96 5.8L10.48 9.22C9.52 9.14 8.74 9.3 8.14 9.7C7.54 10.08 7.12 10.64 6.88 11.38C6.66 12.1 6.62 12.94 6.76 13.9H10.96V22.06H2.8V13.9C2.8 11.02 3.47 8.84 4.81 7.36C6.15 5.86 8.2 5.34 10.96 5.8Z" fill="#FF9921"/>
</svg>
